<svg width="45" height="37" viewBox="0 0 45 37" fill="none" xmlns="http://www.w3.org/2000/svg">
<g clip-path="url(#clip0_83_318)">
<path d="M43.9678 20.7412C40.8931 21.6852 38.0137 23.1751 35.4678 25.1406C33.6327 26.5763 32.0483 28.307 30.7803 30.2617C29.6007 32.0269 28.7667 34.0002 28.3223 36.0762L23.374 35.3652C23.9134 32.5767 25.0013 29.9225 26.5742 27.5576C28.1386 25.1365 30.0947 22.9925 32.3623 21.2129C32.5333 21.0789 32.7049 20.9465 32.8779 20.8135H0.601563L0.601563 15.8135L32.7871 15.8135C32.6261 15.6925 32.4685 15.5693 32.3105 15.4453C30.0448 13.6686 28.0905 11.5271 26.5283 9.1084C24.9521 6.76265 23.876 4.11685 23.3672 1.33691L28.3223 0.668945C28.7735 2.79963 29.6395 4.82093 30.8711 6.61719C32.1456 8.53232 33.7257 10.2249 35.5488 11.6279C38.0859 13.5548 40.9385 15.0278 43.9785 15.9805L43.9678 20.7412Z" stroke="#181818"/>
</g>
<defs>
<clipPath id="clip0_83_318">
<rect width="44.576" height="36.75" fill="white"/>
</clipPath>
</defs>
</svg>
