<svg width="44" height="36" viewBox="0 0 44 36" fill="none" xmlns="http://www.w3.org/2000/svg">
<g clip-path="url(#clip0_83_282)">
<path d="M43.6113 20.3496C40.5367 21.2939 37.6574 22.7838 35.1113 24.749C33.2768 26.1843 31.6928 27.9143 30.4248 29.8682C29.2446 31.6327 28.4102 33.6058 27.9658 35.6816L23.0176 34.9717C23.5569 32.1832 24.6448 29.5289 26.2178 27.1641C27.7829 24.7428 29.7396 22.5989 32.0078 20.8193C32.1778 20.686 32.3491 20.5533 32.5225 20.4199H0.246094L0.246094 15.4199L32.4316 15.4199C32.2706 15.2989 32.1131 15.1758 31.9551 15.0518C29.6891 13.2752 27.7348 11.1337 26.1729 8.71484C24.5966 6.36878 23.5204 3.72266 23.0117 0.942383L27.9668 0.275391C28.4179 2.40642 29.2839 4.42806 30.5156 6.22461C31.7902 8.13973 33.3712 9.83232 35.1943 11.2354C37.731 13.1623 40.5823 14.6354 43.6221 15.5879L43.6113 20.3496ZM27.9678 0.279297V0.263672V0.279297Z" fill="#181818" stroke="#181818" stroke-width="0.5"/>
</g>
<defs>
<clipPath id="clip0_83_282">
<rect width="43.875" height="35.965" fill="white"/>
</clipPath>
</defs>
</svg>
