<svg xmlns="http://www.w3.org/2000/svg" width="44.576" height="36.75" viewBox="0 0 44.576 36.75">
  <g id="Group_470" data-name="Group 470" transform="translate(-934.52 71.219) rotate(-90)">
    <path id="Union_3" data-name="Union 3" d="M-15438.078-15075.52a26.765,26.765,0,0,0-4.4-8.5,21.04,21.04,0,0,0-5.121-4.687,16.79,16.79,0,0,0-5.814-2.458l.711-4.948a21.452,21.452,0,0,1,7.807,3.2,26.008,26.008,0,0,1,6.345,5.788c.134.171.267.343.4.516v-32.277h5v32.186c.121-.161.244-.319.368-.477a25.932,25.932,0,0,1,6.337-5.782,20.575,20.575,0,0,1,7.771-3.161l.668,4.955a16.6,16.6,0,0,0-5.948,2.549,21.014,21.014,0,0,0-5.011,4.678,27.565,27.565,0,0,0-4.352,8.429Zm20.07-15.643h0Z" transform="translate(15488.555 16054.006)" fill="none" stroke="#fff028" stroke-width="1"/>
  </g>
</svg>
