<svg width="45" height="37" viewBox="0 0 45 37" fill="none" xmlns="http://www.w3.org/2000/svg">
<path d="M44.6113 21.3496C41.5367 22.2939 38.6574 23.7838 36.1113 25.749C34.2768 27.1843 32.6928 28.9143 31.4248 30.8682C30.2446 32.6327 29.4102 34.6058 28.9658 36.6816L24.0176 35.9717C24.5569 33.1832 25.6448 30.5289 27.2178 28.1641C28.7829 25.7428 30.7396 23.5989 33.0078 21.8193C33.1778 21.686 33.3491 21.5533 33.5225 21.4199H1.24609L1.24609 16.4199L33.4316 16.4199C33.2706 16.2989 33.1131 16.1758 32.9551 16.0518C30.6891 14.2752 28.7348 12.1337 27.1729 9.71484C25.5966 7.36878 24.5204 4.72266 24.0117 1.94238L28.9668 1.27539C29.4179 3.40642 30.2839 5.42806 31.5156 7.22461C32.7902 9.13973 34.3712 10.8323 36.1943 12.2354C38.731 14.1623 41.5823 15.6354 44.6221 16.5879L44.6113 21.3496ZM28.9678 1.2793V1.26367V1.2793Z" stroke="#181818" stroke-width="0.5"/>
</svg>
