<svg xmlns="http://www.w3.org/2000/svg" width="43.875" height="35.965" viewBox="0 0 43.875 35.965">
  <g id="Group_470" data-name="Group 470" transform="translate(-934.874 70.827) rotate(-90)">
    <path id="Union_3" data-name="Union 3" d="M-15438.078-15075.52a26.778,26.778,0,0,0-4.4-8.5,21.048,21.048,0,0,0-5.119-4.686,16.772,16.772,0,0,0-5.813-2.459l.71-4.948a21.453,21.453,0,0,1,7.807,3.2,26.015,26.015,0,0,1,6.345,5.79q.2.255.4.515v-32.277h5v32.186c.121-.161.244-.319.368-.477a25.919,25.919,0,0,1,6.337-5.782,20.576,20.576,0,0,1,7.772-3.161l.667,4.955a16.6,16.6,0,0,0-5.949,2.549,21.015,21.015,0,0,0-5.011,4.678,27.552,27.552,0,0,0-4.352,8.428Zm20.07-15.643.016,0-.016,0Z" transform="translate(15488.555 16054.006)" fill="#fff028" stroke="#fff028" stroke-width="0.5"/>
  </g>
</svg>
