<svg xmlns="http://www.w3.org/2000/svg" width="111.324" height="111.313" viewBox="0 0 111.324 111.313">
  <g id="Group_453" data-name="Group 453" transform="translate(-892.961 -365.1)">
    <g id="Group_15" data-name="Group 15" transform="translate(892.962 365.099)">
      <g id="Group_13" data-name="Group 13">
        <path id="Path_5" data-name="Path 5" d="M372.468,479.536,359.4,448.09a11.305,11.305,0,0,0-6.065-6.047l-31.475-12.992a11.31,11.31,0,0,0-8.545,0l-31.447,13.067a11.306,11.306,0,0,0-6.047,6.065l-12.992,31.475a11.313,11.313,0,0,0,0,8.546L275.9,519.65a11.307,11.307,0,0,0,6.065,6.046l31.475,12.993a11.311,11.311,0,0,0,8.546,0l31.447-13.081a11.3,11.3,0,0,0,6.046-6.047l12.992-31.475A11.194,11.194,0,0,0,372.468,479.536Z" transform="translate(-261.993 -428.213)" fill="#fff028"/>
      </g>
      <g id="Group_14" data-name="Group 14" transform="translate(34.574 43.344)">
        <circle id="Ellipse_1" data-name="Ellipse 1" cx="11.778" cy="11.778" r="11.778" transform="translate(21.046)" fill="#212123"/>
        <circle id="Ellipse_2" data-name="Ellipse 2" cx="8.726" cy="8.726" r="8.726" transform="translate(0 6.104)" fill="#212123"/>
      </g>
    </g>
  </g>
</svg>
