<svg xmlns="http://www.w3.org/2000/svg" width="86.002" height="56" viewBox="0 0 86.002 56">
  <path id="Subtraction_9" data-name="Subtraction 9" d="M.063,55.492h0A111.509,111.509,0,0,0,1.969,39.959c.369-5.716.449-11.668.238-17.692A197,197,0,0,0,.065-.508a393.251,393.251,0,0,0,41.52,2.057c25.2,0,44.291-2.036,44.48-2.057a137.2,137.2,0,0,0-2.2,17.165,160.252,160.252,0,0,0-.275,17.9,133.443,133.443,0,0,0,2.477,20.937,353.58,353.58,0,0,0-41.3-2.253,430.244,430.244,0,0,0-44.7,2.254Zm37.23-13.583v0H48.315c6.707-19.384,28.929-23.684,29.153-23.725L75.523,7.359a53.738,53.738,0,0,0-12.463,4.2,54.5,54.5,0,0,0-10.479,6.407A45.266,45.266,0,0,0,42.8,28.45a45.27,45.27,0,0,0-9.778-10.482,54.5,54.5,0,0,0-10.479-6.407,54.009,54.009,0,0,0-12.463-4.2L8.158,18.189h0a45.517,45.517,0,0,1,12.111,4.554,39.734,39.734,0,0,1,9.645,7.229A32.264,32.264,0,0,1,37.29,41.91h0Z" transform="translate(-0.063 0.508)" fill="#f9ed34"/>
</svg>
