<svg xmlns="http://www.w3.org/2000/svg" xmlns:xlink="http://www.w3.org/1999/xlink" width="608" height="607" viewBox="0 0 608 607">
  <defs>
    <clipPath id="clip-path">
      <rect id="Rectangle_50" data-name="Rectangle 50" width="566.307" height="566.999" fill="#212123"/>
    </clipPath>
  </defs>
  <g id="Group_622" data-name="Group 622" transform="translate(2124 -6623)">
    <g id="Group_477" data-name="Group 477" transform="translate(-2102.457 6642.501)">
      <g id="Group_476" data-name="Group 476" clip-path="url(#clip-path)">
        <path id="Path_274" data-name="Path 274" d="M35.9,46.835,50.666,33.75c7.691-6.816,14.984-7.052,20.272-1.4,3.18,3.588,3.572,7.545,2.676,10.354l.044.05c4.383-1.042,8.624.231,12.849,5,6.541,7.384,3.822,16.3-3.1,22.426L68.376,83.5Zm27.157,1.934c3.487-3.093,4.067-6.259,1.3-9.387-2.637-2.974-5.9-2.007-9.435,1.127l-6.461,5.726L56.13,54.9Zm14.15,16.384c3.741-3.315,5.414-6.9,1.915-10.853-3.178-3.59-6.963-2.8-11.117.88l-6.511,5.771,8.993,10.154Z" transform="translate(46.349 36.611)" fill="#212123"/>
        <path id="Path_275" data-name="Path 275" d="M105.594,55.626l-20.1-12.042-5.187,2.8,9.552,17.729-8.622,4.644L58.034,25.7l16.7-9c10.37-5.588,17.944-3.37,22.009,4.168A14.072,14.072,0,0,1,94.39,38.009L115.6,50.233ZM76.4,39.143l7.659-4.129c4.582-2.468,6.078-5.609,4-9.469-1.952-3.618-5.453-3.909-9.854-1.533l-7.717,4.156Z" transform="translate(74.931 17.526)" fill="#212123"/>
        <path id="Path_276" data-name="Path 276" d="M113.97,38.933,97.435,43.408l-.751,12.7L87.09,58.7,91.354,6.791l9.79-2.649,29.664,42.725-9.854,2.667Zm-5.293-8.01L99.121,16.331l-.133.034L97.962,33.824Z" transform="translate(112.447 5.348)" fill="#212123"/>
        <path id="Path_277" data-name="Path 277" d="M110.133,26.563C109.61,11.847,118.257.506,131.947.022c14.171-.5,20.018,7.79,21.221,16.659l-9.515.335c-1.256-4.479-4.74-8.124-11.245-7.893-9.515.335-12.711,8.809-12.418,17.094.3,8.489,4.136,16.233,13.653,15.894,7.462-.261,9.914-4.6,10.656-8.736l9.515-.337c-.884,9.9-8.9,17.791-19.986,18.185-14.306.5-23.143-8.981-23.7-24.66" transform="translate(142.169 0.001)" fill="#212123"/>
        <path id="Path_278" data-name="Path 278" d="M145.628,1.378l33.737,6.654-1.615,8.2-24.13-4.756L151.384,22.83l22.11,4.36-1.6,8.134-22.112-4.36-2.4,12.166,24.6,4.85-1.615,8.2-34.209-6.745Z" transform="translate(175.793 1.779)" fill="#212123"/>
        <path id="Path_279" data-name="Path 279" d="M192.085,13.244l28.309,16.038-4.658,8.228L195.95,26.3,189.9,36.967l17.108,9.692-4.39,7.749L185.51,44.716,176.462,60.69l-8.523-4.827Z" transform="translate(216.841 17.1)" fill="#212123"/>
        <path id="Path_280" data-name="Path 280" d="M196.093,39.044c9.8-10.624,24.417-12.617,35.5-2.4s10.216,24.9.415,35.524c-9.527,10.326-24.087,12.368-35.167,2.147s-10.269-24.948-.745-35.272m28.7,26.485c6.085-6.6,7.515-15.626.515-22.084-7.052-6.5-15.834-4.259-21.919,2.339-5.808,6.3-7.339,15.229-.289,21.736,7,6.459,15.885,4.305,21.693-1.991" transform="translate(243.691 38.66)" fill="#212123"/>
        <path id="Path_281" data-name="Path 281" d="M219.728,99.9l10.326-21.042-3.217-4.935-16.874,11-5.348-8.207,40.975-26.71L255.952,65.9c6.436,9.873,4.853,17.61-2.321,22.286a14.075,14.075,0,0,1-17.28-.921l-10.411,22.16Zm13.994-30.465,4.752,7.288c2.841,4.36,6.1,5.59,9.772,3.2,3.444-2.243,3.441-5.758.71-9.948L244.17,62.63Z" transform="translate(264.191 64.569)" fill="#212123"/>
        <rect id="Rectangle_49" data-name="Rectangle 49" width="48.982" height="9.799" transform="translate(504.877 211.327) rotate(-16.782)" fill="#212123"/>
        <path id="Path_282" data-name="Path 282" d="M272.8,102.468l.811,9.139-20.135,17.255,22.774,12.562.813,9.208-48.781,4.321-.813-9.208L260.7,142.8l-18.112-9.6-.667-7.5,15.862-12.682-32.949,2.919-.813-9.144Z" transform="translate(289.241 132.302)" fill="#212123"/>
        <path id="Path_283" data-name="Path 283" d="M274.312,141.41l-3.164,19.2c-2.037,12.372-9.54,15.786-17.11,14.54s-14.2-6.922-12.022-20.171l1.437-8.716-19-3.13,1.592-9.664Zm-24.266,14.54c-.745,4.532-.048,8.741,5.359,9.632,4.933.813,7.02-3.011,7.776-7.607l1.356-8.248-13.11-2.158Z" transform="translate(289.807 172.323)" fill="#212123"/>
        <path id="Path_284" data-name="Path 284" d="M231.1,185.253l6.275-15.933-9.742-8.179,3.641-9.243,39.1,34.388-3.714,9.433-51.975-1.686,3.739-9.5Zm9.582.534,17.408,1.036.048-.128L244.75,175.46Z" transform="translate(277.198 196.124)" fill="#212123"/>
        <path id="Path_285" data-name="Path 285" d="M242.574,183.206c12.175,8.283,16.212,21.958,8.507,33.288-7.971,11.724-18.114,11.536-25.979,7.263l5.357-7.87c4.353,1.636,9.355.978,13.016-4.4,5.352-7.875.4-15.463-6.445-20.121-7.025-4.777-15.541-6.262-20.9,1.611-4.2,6.175-2.151,10.711.749,13.763l-5.357,7.87c-7.465-6.564-9.089-17.7-2.85-26.868,8.053-11.838,20.93-13.355,33.9-4.534" transform="translate(264.463 229.257)" fill="#212123"/>
        <path id="Path_286" data-name="Path 286" d="M225.822,227.1l10.3-9.54,5.68,6.136L213.956,249.47l-5.675-6.133,10.306-9.538-27.6-29.806,7.235-6.7Z" transform="translate(246.597 254.737)" fill="#212123"/>
        <g id="Group_623" data-name="Group 623">
          <path id="Path_287" data-name="Path 287" d="M199.5,264.658l-8.335,2.72-30.232-23.564,9.852,30.211-8.727,2.846-15.181-46.556,8.594-2.8,29.975,23.434-9.788-30.016,8.658-2.825Z" transform="translate(189.643 281.606)" fill="#212123"/>
          <path id="Path_288" data-name="Path 288" d="M168.294,249.028c.882,14.427-7.79,26.353-22.829,27.272s-25.038-9.859-25.92-24.284c-.859-14.017,7.746-25.936,22.788-26.857s25.1,9.854,25.961,23.869m-38.975,2.387c.55,8.956,6.076,16.237,15.58,15.655,9.57-.587,14.031-8.477,13.481-17.433-.525-8.548-5.911-15.834-15.484-15.248-9.5.58-14.1,8.482-13.577,17.026" transform="translate(154.275 290.644)" fill="#212123"/>
          <path id="Path_289" data-name="Path 289" d="M119.663,265.771l13.852,2.326-1.384,8.241L94.7,270.063l1.382-8.246,13.852,2.323,6.72-40.075,9.733,1.634Z" transform="translate(122.268 289.303)" fill="#212123"/>
          <path id="Path_290" data-name="Path 290" d="M86.127,254.969,98.7,261.233l-3.73,7.478L61,251.782l3.728-7.476L77.3,250.567l18.121-36.351,8.828,4.4Z" transform="translate(78.766 276.586)" fill="#212123"/>
          <path id="Path_291" data-name="Path 291" d="M69,260.173l-7.572-6.218,12.436-15.138L58.3,226.035,45.866,241.173l-7.623-6.259,31.089-37.85,7.623,6.262L64.346,218.678l15.562,12.78L92.516,216.11l7.57,6.214Z" transform="translate(49.377 254.439)" fill="#212123"/>
          <path id="Path_292" data-name="Path 292" d="M40.929,236.29,20.162,208.874l6.667-5.045,14.847,19.6,9.231-6.99L37.3,198.475l6.6-5L57.517,211.44l9.886-7.485-15.14-19.99,6.663-5.047,21.056,27.8Z" transform="translate(26.032 231.004)" fill="#212123"/>
          <path id="Path_293" data-name="Path 293" d="M14.5,190.931,4.029,160.115l8.952-3.04L20.3,178.612l11.614-3.95-6.326-18.618,8.434-2.864,6.324,18.62,17.385-5.907,3.15,9.277Z" transform="translate(5.202 197.779)" fill="#212123"/>
          <path id="Path_294" data-name="Path 294" d="M28.209,172.749C13.825,174.148,1.6,165.912.136,150.916s8.956-25.375,23.342-26.774c13.976-1.361,26.195,6.809,27.654,21.81s-8.949,25.436-22.923,26.8m-3.783-38.858c-8.931.871-16.006,6.651-15.085,16.127.93,9.545,8.974,13.715,17.9,12.846,8.523-.829,15.614-6.475,14.684-16.017-.923-9.476-8.981-13.786-17.5-12.956" transform="translate(0 160.097)" fill="#212123"/>
          <path id="Path_295" data-name="Path 295" d="M.144,134.672l1.384-8.656L36.3,109.864l-31.384-5.02L6.364,95.78l48.362,7.735L53.3,112.446,18.764,128.424l31.18,4.988-1.439,9Z" transform="translate(0.185 123.667)" fill="#212123"/>
          <path id="Path_296" data-name="Path 296" d="M18.919,95.024l-5.3,13.007-7.737-3.15L20.19,69.732l7.737,3.153-5.293,13L60.258,101.2l-3.719,9.137Z" transform="translate(7.597 90.035)" fill="#212123"/>
        </g>
      </g>
      <circle id="Ellipse_12" data-name="Ellipse 12" cx="8" cy="8" r="8" transform="translate(410.457 492.499)" fill="#fff"/>
      <circle id="Ellipse_13" data-name="Ellipse 13" cx="8" cy="8" r="8" transform="translate(58.457 127.499)" fill="#fff"/>
    </g>
    <g id="Ellipse_14" data-name="Ellipse 14" transform="translate(-2124 6623)" fill="none" stroke="rgba(112,112,112,0)" stroke-width="1">
      <ellipse cx="304" cy="303.5" rx="304" ry="303.5" stroke="none"/>
      <ellipse cx="304" cy="303.5" rx="303.5" ry="303" fill="none"/>
    </g>
  </g>
</svg>
