<svg xmlns="http://www.w3.org/2000/svg" width="257" height="257" viewBox="0 0 257 257">
  <g id="Group_488" data-name="Group 488" transform="translate(-18140 -12592)">
    <g id="Group_487" data-name="Group 487" transform="translate(-50)">
      <g id="Icon_feather-eye" data-name="Icon feather-eye" transform="matrix(0.407, -0.914, 0.914, 0.407, 18189.916, 12685.823)">
        <path id="Subtraction_2" data-name="Subtraction 2" d="M-17949.547-12160.762a20.831,20.831,0,0,1-8.289-1.733,25.18,25.18,0,0,1-6.125-3.813,27.789,27.789,0,0,1-5.1-5.541l0-.006s0-.007.008-.015a27.758,27.758,0,0,1,5.092-5.53,25.132,25.132,0,0,1,6.125-3.812,20.846,20.846,0,0,1,8.289-1.732,20.821,20.821,0,0,1,8.285,1.732,25.158,25.158,0,0,1,6.123,3.813,27.807,27.807,0,0,1,5.1,5.539l0,.006s0,.007-.008.015a27.772,27.772,0,0,1-5.092,5.532,25.1,25.1,0,0,1-6.123,3.813A20.805,20.805,0,0,1-17949.547-12160.762Zm0-17.822a6.736,6.736,0,0,0-6.729,6.729,6.736,6.736,0,0,0,6.729,6.729,6.736,6.736,0,0,0,6.729-6.729A6.736,6.736,0,0,0-17949.547-12178.584Zm-2.084,6.115a1.467,1.467,0,0,1-1.465-1.466,1.47,1.47,0,0,1,1.465-1.47,1.467,1.467,0,0,1,1.461,1.47A1.465,1.465,0,0,1-17951.631-12172.469Z" transform="translate(17970.561 12191.565)" fill="#fff035"/>
      </g>
      <path id="Ellipse_4" data-name="Ellipse 4" d="M128.5,1a128.448,128.448,0,0,0-25.7,2.59A126.8,126.8,0,0,0,57.214,22.774a127.875,127.875,0,0,0-46.2,56.1A126.851,126.851,0,0,0,3.59,102.8a128.753,128.753,0,0,0,0,51.394,126.8,126.8,0,0,0,19.184,45.589,127.875,127.875,0,0,0,56.1,46.2A126.851,126.851,0,0,0,102.8,253.41a128.753,128.753,0,0,0,51.394,0,126.8,126.8,0,0,0,45.589-19.184,127.875,127.875,0,0,0,46.2-56.1A126.851,126.851,0,0,0,253.41,154.2a128.753,128.753,0,0,0,0-51.394,126.8,126.8,0,0,0-19.184-45.589,127.875,127.875,0,0,0-56.1-46.2A126.851,126.851,0,0,0,154.2,3.59,128.448,128.448,0,0,0,128.5,1m0-1A128.5,128.5,0,1,1,0,128.5,128.5,128.5,0,0,1,128.5,0Z" transform="translate(18190 12592)" fill="rgba(255,255,255,0.01)"/>
    </g>
    <g id="Group_486" data-name="Group 486" transform="translate(18091.107 12542.934)">
      <path id="Path_310" data-name="Path 310" d="M6.57,0h4.32V-17.79h6.15v-3.66H.42v3.66H6.57Z" transform="matrix(0.741, -0.672, 0.672, 0.741, 102.038, 107.459)" fill="#fff028"/>
      <path id="Path_311" data-name="Path 311" d="M15.48,0h4.47L12.3-21.45H7.86L.12,0H4.47L6.24-5.28h7.5ZM7.56-9.27l2.43-7.26h.06l2.37,7.26Z" transform="matrix(0.862, -0.508, 0.508, 0.862, 116.457, 94.475)" fill="#fff028"/>
      <path id="Path_312" data-name="Path 312" d="M2.37,0H6.66V-8.43h3.87c5.88,0,7.86-3.27,7.86-6.63s-2.01-6.36-7.5-6.36H2.37ZM6.66-11.97v-5.82h3.66c2.04,0,3.84.63,3.84,2.82,0,2.4-1.77,3-3.78,3Z" transform="matrix(0.954, -0.3, 0.3, 0.954, 137.183, 82.827)" fill="#fff028"/>
      <path id="Path_313" data-name="Path 313" transform="translate(158.52 76.869) rotate(-8.522)" fill="#fff028"/>
      <path id="Path_314" data-name="Path 314" d="M18.42-3.18a3.614,3.614,0,0,1-2.22-.99,9.362,9.362,0,0,0,.9-4.02v-2.46H13.62v2.49c0,.27-.03.63-.06.99L9.93-11.49c2.13-1.44,3.75-3.21,3.75-5.43,0-2.88-1.98-4.71-5.28-4.71s-5.58,2.07-5.58,4.95a7.355,7.355,0,0,0,2.01,4.62A7.153,7.153,0,0,0,1.17-5.97C1.17-2.13,3.84.42,8.55.42a8.435,8.435,0,0,0,5.4-1.74A5.568,5.568,0,0,0,17.97,0H19.5V-3.18ZM8.37-18.6a1.643,1.643,0,0,1,1.74,1.86c0,.96-.81,1.95-2.16,2.88a5.713,5.713,0,0,1-1.41-2.88A1.68,1.68,0,0,1,8.37-18.6ZM5.04-6.18A4.068,4.068,0,0,1,6.9-9.6l4.86,5.76a5.145,5.145,0,0,1-3.12.9A3.256,3.256,0,0,1,5.04-6.18Z" transform="matrix(1, 0.02, -0.02, 1, 169.091, 75.062)" fill="#fff028"/>
      <path id="Path_315" data-name="Path 315" transform="translate(192.865 76.414) rotate(10.826)" fill="#fff028"/>
      <path id="Path_316" data-name="Path 316" d="M2.37,0H6.66V-8.7h8.82V0H19.8V-21.45H15.48v8.58H6.66v-8.58H2.37Z" transform="translate(203.436 78.087) rotate(21.195)" fill="#fff028"/>
      <path id="Path_309" data-name="Path 309" d="M11.85.51c6.6,0,10.68-4.98,10.68-11.13,0-6.33-4.08-11.31-10.68-11.31S1.14-16.95,1.14-10.62C1.14-4.47,5.25.51,11.85.51Zm0-4.05c-4.2,0-6.36-3.33-6.36-7.08,0-3.93,2.16-7.26,6.36-7.26,4.17,0,6.39,3.33,6.39,7.26C18.24-6.87,16.02-3.54,11.85-3.54Z" transform="matrix(0.808, 0.589, -0.589, 0.808, 227.279, 87.706)" fill="#fff028"/>
      <path id="Path_317" data-name="Path 317" d="M2.37,0h13.8V-3.93H6.66V-21.45H2.37Z" transform="translate(248.879 104.414) rotate(49.271)" fill="#fff028"/>
      <path id="Path_318" data-name="Path 318" d="M2.37,0H9.84c6.42,0,10.89-4.38,10.89-10.83,0-6.6-4.62-10.62-10.83-10.62H2.37ZM6.66-4.02V-17.43H9.12c4.89,0,7.32,2.43,7.32,6.6,0,4.83-2.67,6.81-7.29,6.81Z" transform="translate(262.091 119.953) rotate(62.233)" fill="#fff028"/>
      <path id="Path_319" data-name="Path 319" transform="matrix(0.302, 0.953, -0.953, 0.302, 273.174, 143.197)" fill="#fff028"/>
      <path id="Path_320" data-name="Path 320" d="M6.57,0h4.32V-17.79h6.15v-3.66H.42v3.66H6.57Z" transform="matrix(0.157, 0.988, -0.988, 0.157, 276.313, 152.579)" fill="#fff028"/>
      <path id="Path_321" data-name="Path 321" d="M11.85.51c6.6,0,10.68-4.98,10.68-11.13,0-6.33-4.08-11.31-10.68-11.31S1.14-16.95,1.14-10.62C1.14-4.47,5.25.51,11.85.51Zm0-4.05c-4.2,0-6.36-3.33-6.36-7.08,0-3.93,2.16-7.26,6.36-7.26,4.17,0,6.39,3.33,6.39,7.26C18.24-6.87,16.02-3.54,11.85-3.54Z" transform="translate(279.546 172.731) rotate(94.044)" fill="#fff028"/>
      <path id="Path_322" data-name="Path 322" transform="matrix(-0.255, 0.967, -0.967, -0.255, 276.462, 200.042)" fill="#ffe700"/>
      <path id="Path_323" data-name="Path 323" d="M1.17,0H18.18V-3.96H6.57A48.706,48.706,0,0,0,10.11-8.4l7.35-9.33v-3.69H1.35v4.05H12.06c-1.44,1.56-2.64,3.12-3.84,4.68l-7.05,9Z" transform="matrix(-0.412, 0.911, -0.911, -0.412, 273.903, 210.454)" fill="#fff"/>
      <path id="Path_324" data-name="Path 324" d="M11.85.51c6.6,0,10.68-4.98,10.68-11.13,0-6.33-4.08-11.31-10.68-11.31S1.14-16.95,1.14-10.62C1.14-4.47,5.25.51,11.85.51Zm0-4.05c-4.2,0-6.36-3.33-6.36-7.08,0-3.93,2.16-7.26,6.36-7.26,4.17,0,6.39,3.33,6.39,7.26C18.24-6.87,16.02-3.54,11.85-3.54Z" transform="matrix(-0.616, 0.787, -0.787, -0.616, 264.517, 230.872)" fill="#fff"/>
      <path id="Path_325" data-name="Path 325" d="M11.85.51c6.6,0,10.68-4.98,10.68-11.13,0-6.33-4.08-11.31-10.68-11.31S1.14-16.95,1.14-10.62C1.14-4.47,5.25.51,11.85.51Zm0-4.05c-4.2,0-6.36-3.33-6.36-7.08,0-3.93,2.16-7.26,6.36-7.26,4.17,0,6.39,3.33,6.39,7.26C18.24-6.87,16.02-3.54,11.85-3.54Z" transform="matrix(-0.802, 0.597, -0.597, -0.802, 247.38, 252.01)" fill="#fff"/>
      <path id="Path_326" data-name="Path 326" d="M2.37,0H6.39V-14.49l4.92,7.41h3.3l4.89-7.53V0h4.05V-21.45H19.5L13.14-12,6.39-21.45H2.37Z" transform="matrix(-0.935, 0.355, -0.355, -0.935, 225.405, 267.962)" fill="#fff"/>
      <path id="Path_327" data-name="Path 327" transform="matrix(-0.986, 0.166, -0.166, -0.986, 197.236, 277.267)" fill="#fff"/>
      <path id="Path_328" data-name="Path 328" d="M6.57,0h4.32V-17.79h6.15v-3.66H.42v3.66H6.57Z" transform="translate(187.523 279.072) rotate(178.921)" fill="#fff"/>
      <path id="Path_329" data-name="Path 329" d="M2.37,0H6.66V-8.7h8.82V0H19.8V-21.45H15.48v8.58H6.66v-8.58H2.37Z" transform="matrix(-0.978, -0.21, 0.21, -0.978, 166.369, 279.32)" fill="#fff"/>
      <path id="Path_330" data-name="Path 330" d="M15.48,0h4.47L12.3-21.45H7.86L.12,0H4.47L6.24-5.28h7.5ZM7.56-9.27l2.43-7.26h.06l2.37,7.26Z" transform="translate(141.315 273.373) rotate(-153.961)" fill="#fff"/>
      <path id="Path_331" data-name="Path 331" d="M6.57,0h4.32V-17.79h6.15v-3.66H.42v3.66H6.57Z" transform="matrix(-0.793, -0.61, 0.61, -0.793, 121.642, 263.381)" fill="#fff"/>
      <path id="Path_332" data-name="Path 332" transform="translate(105.749 250.376) rotate(-133.931)" fill="#fff"/>
      <path id="Path_333" data-name="Path 333" d="M9.48.51c5.31,0,8.28-2.82,8.28-6.78,0-3.99-3.03-5.19-6.69-6.33-4.38-1.41-5.28-1.83-5.28-3.45,0-1.83,1.65-2.37,3.3-2.37,2.07,0,3.87.75,4.02,3.36h4.17c-.03-4.95-3.93-6.87-8.1-6.87-3.96,0-7.59,2.01-7.59,6.33,0,3.96,3.09,5.28,6.93,6.39,3.72,1.08,5.07,1.56,5.07,3.51,0,2.04-1.77,2.64-4.02,2.64-2.61,0-4.35-1.14-4.32-3.96H1.08C.99-1.59,4.86.51,9.48.51Z" transform="translate(98.174 242.763) rotate(-124.448)" fill="#fff"/>
      <path id="Path_334" data-name="Path 334" d="M2.37,0H6.66V-8.7h8.82V0H19.8V-21.45H15.48v8.58H6.66v-8.58H2.37Z" transform="translate(85.619 224.028) rotate(-110.867)" fill="#fff"/>
      <path id="Path_335" data-name="Path 335" d="M2.37,0H6.66V-21.45H2.37Z" transform="translate(77.297 199.433) rotate(-100.016)" fill="#fff"/>
      <path id="Path_336" data-name="Path 336" d="M6.57,0h4.32V-17.79h6.15v-3.66H.42v3.66H6.57Z" transform="matrix(-0.007, -1, 1, -0.007, 75.014, 186.625)" fill="#fff"/>
    </g>
  </g>
</svg>
