<svg width="4414" height="114" viewBox="0 0 4414 114" fill="none" xmlns="http://www.w3.org/2000/svg">
<path fill-rule="evenodd" clip-rule="evenodd" d="M114 45.5C76.1685 45.5 45.5 76.1685 45.5 114H0.5C0.5 51.3157 51.3157 0.5 114 0.5C176.684 0.5 227.5 51.3157 227.5 114H182.5C182.5 76.1685 151.831 45.5 114 45.5Z" fill="#FFF028"/>
<path fill-rule="evenodd" clip-rule="evenodd" d="M296 45.5C258.168 45.5 227.5 76.1685 227.5 114H182.5C182.5 51.3157 233.316 0.5 296 0.5C358.684 0.5 409.5 51.3157 409.5 114H364.5C364.5 76.1685 333.831 45.5 296 45.5Z" fill="#FFF028"/>
<path fill-rule="evenodd" clip-rule="evenodd" d="M478 45.5C440.168 45.5 409.5 76.1685 409.5 114H364.5C364.5 51.3157 415.316 0.5 478 0.5C540.684 0.5 591.5 51.3157 591.5 114H546.5C546.5 76.1685 515.831 45.5 478 45.5Z" fill="#FFF028"/>
<path fill-rule="evenodd" clip-rule="evenodd" d="M660 45.5C622.168 45.5 591.5 76.1685 591.5 114H546.5C546.5 51.3157 597.316 0.5 660 0.5C722.684 0.5 773.5 51.3157 773.5 114H728.5C728.5 76.1685 697.831 45.5 660 45.5Z" fill="#FFF028"/>
<path fill-rule="evenodd" clip-rule="evenodd" d="M842 45.5C804.168 45.5 773.5 76.1685 773.5 114H728.5C728.5 51.3157 779.316 0.5 842 0.5C904.684 0.5 955.5 51.3157 955.5 114H910.5C910.5 76.1685 879.831 45.5 842 45.5Z" fill="#FFF028"/>
<path fill-rule="evenodd" clip-rule="evenodd" d="M1024 45.5C986.168 45.5 955.5 76.1685 955.5 114H910.5C910.5 51.3157 961.316 0.5 1024 0.5C1086.68 0.5 1137.5 51.3157 1137.5 114H1092.5C1092.5 76.1685 1061.83 45.5 1024 45.5Z" fill="#FFF028"/>
<path fill-rule="evenodd" clip-rule="evenodd" d="M1206 45.5C1168.17 45.5 1137.5 76.1685 1137.5 114H1092.5C1092.5 51.3157 1143.32 0.5 1206 0.5C1268.68 0.5 1319.5 51.3157 1319.5 114H1274.5C1274.5 76.1685 1243.83 45.5 1206 45.5Z" fill="#FFF028"/>
<path fill-rule="evenodd" clip-rule="evenodd" d="M1388 45.5C1350.17 45.5 1319.5 76.1685 1319.5 114H1274.5C1274.5 51.3157 1325.32 0.5 1388 0.5C1450.68 0.5 1501.5 51.3157 1501.5 114H1456.5C1456.5 76.1685 1425.83 45.5 1388 45.5Z" fill="#FFF028"/>
<path fill-rule="evenodd" clip-rule="evenodd" d="M1570 45.5C1532.17 45.5 1501.5 76.1685 1501.5 114H1456.5C1456.5 51.3157 1507.32 0.5 1570 0.5C1632.68 0.5 1683.5 51.3157 1683.5 114H1638.5C1638.5 76.1685 1607.83 45.5 1570 45.5Z" fill="#FFF028"/>
<path fill-rule="evenodd" clip-rule="evenodd" d="M1752 45.5C1714.17 45.5 1683.5 76.1685 1683.5 114H1638.5C1638.5 51.3157 1689.32 0.5 1752 0.5C1814.68 0.5 1865.5 51.3157 1865.5 114H1820.5C1820.5 76.1685 1789.83 45.5 1752 45.5Z" fill="#FFF028"/>
<path fill-rule="evenodd" clip-rule="evenodd" d="M1934 45.5C1896.17 45.5 1865.5 76.1685 1865.5 114H1820.5C1820.5 51.3157 1871.32 0.5 1934 0.5C1996.68 0.5 2047.5 51.3157 2047.5 114H2002.5C2002.5 76.1685 1971.83 45.5 1934 45.5Z" fill="#FFF028"/>
<path fill-rule="evenodd" clip-rule="evenodd" d="M2116 45.5C2078.17 45.5 2047.5 76.1685 2047.5 114H2002.5C2002.5 51.3157 2053.32 0.5 2116 0.5C2178.68 0.5 2229.5 51.3157 2229.5 114H2184.5C2184.5 76.1685 2153.83 45.5 2116 45.5Z" fill="#FFF028"/>
<path fill-rule="evenodd" clip-rule="evenodd" d="M2298.5 45.5C2260.67 45.5 2230 76.1685 2230 114H2185C2185 51.3157 2235.82 0.5 2298.5 0.5C2361.18 0.5 2412 51.3157 2412 114H2367C2367 76.1685 2336.33 45.5 2298.5 45.5Z" fill="#FFF028"/>
<path fill-rule="evenodd" clip-rule="evenodd" d="M2480.5 45.5C2442.67 45.5 2412 76.1685 2412 114H2367C2367 51.3157 2417.82 0.5 2480.5 0.5C2543.18 0.5 2594 51.3157 2594 114H2549C2549 76.1685 2518.33 45.5 2480.5 45.5Z" fill="#FFF028"/>
<path fill-rule="evenodd" clip-rule="evenodd" d="M2662.5 45.5C2624.67 45.5 2594 76.1685 2594 114H2549C2549 51.3157 2599.82 0.5 2662.5 0.5C2725.18 0.5 2776 51.3157 2776 114H2731C2731 76.1685 2700.33 45.5 2662.5 45.5Z" fill="#FFF028"/>
<path fill-rule="evenodd" clip-rule="evenodd" d="M2844.5 45.5C2806.67 45.5 2776 76.1685 2776 114H2731C2731 51.3157 2781.82 0.5 2844.5 0.5C2907.18 0.5 2958 51.3157 2958 114H2913C2913 76.1685 2882.33 45.5 2844.5 45.5Z" fill="#FFF028"/>
<path fill-rule="evenodd" clip-rule="evenodd" d="M3026.5 45.5C2988.67 45.5 2958 76.1685 2958 114H2913C2913 51.3157 2963.82 0.5 3026.5 0.5C3089.18 0.5 3140 51.3157 3140 114H3095C3095 76.1685 3064.33 45.5 3026.5 45.5Z" fill="#FFF028"/>
<path fill-rule="evenodd" clip-rule="evenodd" d="M3208.5 45.5C3170.67 45.5 3140 76.1685 3140 114H3095C3095 51.3157 3145.82 0.5 3208.5 0.5C3271.18 0.5 3322 51.3157 3322 114H3277C3277 76.1685 3246.33 45.5 3208.5 45.5Z" fill="#FFF028"/>
<path fill-rule="evenodd" clip-rule="evenodd" d="M3390.5 45.5C3352.67 45.5 3322 76.1685 3322 114H3277C3277 51.3157 3327.82 0.5 3390.5 0.5C3453.18 0.5 3504 51.3157 3504 114H3459C3459 76.1685 3428.33 45.5 3390.5 45.5Z" fill="#FFF028"/>
<path fill-rule="evenodd" clip-rule="evenodd" d="M3572.5 45.5C3534.67 45.5 3504 76.1685 3504 114H3459C3459 51.3157 3509.82 0.5 3572.5 0.5C3635.18 0.5 3686 51.3157 3686 114H3641C3641 76.1685 3610.33 45.5 3572.5 45.5Z" fill="#FFF028"/>
<path fill-rule="evenodd" clip-rule="evenodd" d="M3754.5 45.5C3716.67 45.5 3686 76.1685 3686 114H3641C3641 51.3157 3691.82 0.5 3754.5 0.5C3817.18 0.5 3868 51.3157 3868 114H3823C3823 76.1685 3792.33 45.5 3754.5 45.5Z" fill="#FFF028"/>
<path fill-rule="evenodd" clip-rule="evenodd" d="M3936.5 45.5C3898.67 45.5 3868 76.1685 3868 114H3823C3823 51.3157 3873.82 0.5 3936.5 0.5C3999.18 0.5 4050 51.3157 4050 114H4005C4005 76.1685 3974.33 45.5 3936.5 45.5Z" fill="#FFF028"/>
<path fill-rule="evenodd" clip-rule="evenodd" d="M4118.5 45.5C4080.67 45.5 4050 76.1685 4050 114H4005C4005 51.3157 4055.82 0.5 4118.5 0.5C4181.18 0.5 4232 51.3157 4232 114H4187C4187 76.1685 4156.33 45.5 4118.5 45.5Z" fill="#FFF028"/>
<path fill-rule="evenodd" clip-rule="evenodd" d="M4300.5 45.5C4262.67 45.5 4232 76.1685 4232 114H4187C4187 51.3157 4237.82 0.5 4300.5 0.5C4363.18 0.5 4414 51.3157 4414 114H4369C4369 76.1685 4338.33 45.5 4300.5 45.5Z" fill="#FFF028"/>
</svg>
