<svg width="112" height="112" viewBox="0 0 112 112" fill="none" xmlns="http://www.w3.org/2000/svg">
<g clip-path="url(#clip0_96_515)">
<path d="M110.475 51.3211L97.407 19.8751C96.2567 17.142 94.0785 14.9703 91.342 13.8281L59.867 0.836092C57.1283 -0.281301 54.0608 -0.281301 51.322 0.836092L19.8751 13.9031C17.142 15.0536 14.9704 17.2317 13.8281 19.9681L0.836056 51.4431C-0.281289 54.1822 -0.281289 57.25 0.836056 59.9891L13.907 91.4351C15.0578 94.1677 17.2359 96.3389 19.972 97.4811L51.447 110.474C54.1861 111.592 57.254 111.592 59.993 110.474L91.4401 97.3931C94.1697 96.2472 96.3406 94.0759 97.486 91.3461L110.478 59.8711C111.608 57.133 111.607 54.0584 110.475 51.3211V51.3211Z" fill="#FFF028"/>
<path d="M70.1458 69.9733C78.3488 69.9733 84.9987 63.3234 84.9987 55.1204C84.9987 46.9174 78.3488 40.2676 70.1458 40.2676C61.9428 40.2676 55.293 46.9174 55.293 55.1204C55.293 63.3234 61.9428 69.9733 70.1458 69.9733Z" fill="#212123"/>
<path d="M39.756 69.973C45.8334 69.973 50.7601 65.0463 50.7601 58.9689C50.7601 52.8915 45.8334 47.9648 39.756 47.9648C33.6786 47.9648 28.752 52.8915 28.752 58.9689C28.752 65.0463 33.6786 69.973 39.756 69.973Z" fill="#212123"/>
</g>
<defs>
<clipPath id="clip0_96_515">
<rect width="111.324" height="111.313" fill="white"/>
</clipPath>
</defs>
</svg>
